<?xml version="1.0" encoding="UTF-8" standalone="no"?>
<!-- Created with Inkscape (http://www.inkscape.org/) -->

<svg
   xmlns:dc="http://purl.org/dc/elements/1.1/"
   xmlns:cc="http://creativecommons.org/ns#"
   xmlns:rdf="http://www.w3.org/1999/02/22-rdf-syntax-ns#"
   xmlns:svg="http://www.w3.org/2000/svg"
   xmlns="http://www.w3.org/2000/svg"
   xmlns:sodipodi="http://sodipodi.sourceforge.net/DTD/sodipodi-0.dtd"
   xmlns:inkscape="http://www.inkscape.org/namespaces/inkscape"
   version="1.1"
   width="14"
   height="14"
   viewBox="0 0 14 14"
   id="Layer_1"
   xml:space="preserve"
   inkscape:version="0.48.4 r9939"
   sodipodi:docname="awri32-white.svg"><sodipodi:namedview
     pagecolor="#ffffff"
     bordercolor="#666666"
     borderopacity="1"
     objecttolerance="10"
     gridtolerance="10"
     guidetolerance="10"
     inkscape:pageopacity="0"
     inkscape:pageshadow="2"
     inkscape:window-width="640"
     inkscape:window-height="480"
     id="namedview21"
     showgrid="false"
     inkscape:zoom="16.857143"
     inkscape:cx="7"
     inkscape:cy="7"
     inkscape:window-x="65"
     inkscape:window-y="24"
     inkscape:window-maximized="0"
     inkscape:current-layer="Layer_1" /><metadata
     id="metadata39"><rdf:RDF><cc:Work
         rdf:about=""><dc:format>image/svg+xml</dc:format><dc:type
           rdf:resource="http://purl.org/dc/dcmitype/StillImage" /><dc:title /></cc:Work></rdf:RDF></metadata><defs
     id="defs37" /><path
     d="M 5.287189,13.894585 C 4.258865,13.5591 3.0721871,12.843194 2.3335618,12.112705 l -0.8117732,-0.80283 0.50225,-0.04237 c 0.4102503,-0.03461 0.6366485,0.06085 1.2359655,0.52115 0.4035437,0.309937 0.9937993,0.687767 1.3116794,0.839619 2.1187393,1.012141 4.8335293,0.599541 6.5148535,-0.99014 0.361133,-0.341449 0.531042,-0.404125 0.997125,-0.367823 l 0.561816,0.04377 -0.823976,0.806746 c -0.518203,0.507367 -1.206195,0.994325 -1.8539484,1.312218 -0.9881,0.484923 -1.0969655,0.50693 -2.6779256,0.541338 -0.9063747,0.01972 -1.8074723,-0.01617 -2.002439,-0.07978 z M 5.5043444,12.709116 C 5.4288128,12.679179 5.1931727,12.615745 4.9806991,12.568173 4.6589993,12.496137 4.6015744,12.419461 4.6373754,12.109764 4.6861302,11.68801 4.9982462,11.554278 5.9849977,11.53235 l 0.6179829,-0.01374 0.00418,-1.21636 C 6.6094583,9.6332594 6.6436092,7.9091574 6.6830515,6.4709208 6.7224937,5.0326841 6.7091559,3.8274146 6.6534122,3.792544 6.355834,3.6063954 3.055336,4.4294089 2.7140209,4.7748722 c -0.043435,0.043963 0.2073902,0.969378 0.557388,2.0564793 0.3499976,1.0871016 0.7464501,2.343328 0.8810052,2.7916152 l 0.2446457,0.8150673 -0.3105853,0.254552 c -0.6029639,0.494185 -2.3054756,0.518423 -3.0231096,0.04304 -0.32025432,-0.212147 -0.32892314,-0.3353 -0.0785253,-1.1155694 0.068529,-0.2135438 0.0572026,-0.2214729 -0.0680792,-0.047663 -0.13358582,0.1853311 -0.16513831,0.1853311 -0.28397225,0 C 0.35648096,9.1414684 0.18535913,7.7965386 0.24931455,6.5584878 0.30619239,5.4574448 0.38368298,5.1362192 0.81329897,4.2205748 1.6795162,2.3743986 3.3566732,0.87496379 5.1516137,0.34197554 6.0790586,0.06658039 7.9989382,0.05589446 8.9816661,0.32066069 11.189875,0.91558785 13.178478,2.9744363 13.755709,5.2633435 14.012642,6.2821664 13.96708,8.4624926 13.671937,9.2720204 L 13.502726,9.7361379 13.295402,9.3028595 C 13.013968,8.7146984 12.934253,8.8503162 13.19299,9.4770907 13.485152,10.18483 13.452686,10.504559 13.062374,10.76341 12.311741,11.26122 10.284262,11.113014 9.9277158,10.534271 9.8289109,10.373891 10.019759,9.6119317 10.635296,7.7092588 11.098879,6.2762887 11.478173,5.0191598 11.478173,4.9156387 11.478173,4.8121176 11.122834,4.591368 10.68853,4.425084 9.8641176,4.1094364 7.8110144,3.6888913 7.563592,3.7849902 7.4681769,3.8220496 7.4427497,4.6910189 7.4872567,6.3937308 7.523962,7.797975 7.5563098,9.5255388 7.5591409,10.23276 l 0.00515,1.28586 0.5493182,6.53e-4 c 0.8800192,0.0011 1.5792894,0.247558 1.5792894,0.556741 0,0.461185 -0.5262741,0.607373 -2.3346017,0.648501 -0.9441405,0.02147 -1.7784173,0.01454 -1.8539485,-0.01539 z M 2.1054389,9.5742896 C 2.4101911,9.5724216 2.4142816,9.5480786 2.4035886,7.8001596 2.3951941,6.4274899 2.3619651,6.1219422 2.2562173,6.4449233 2.181126,6.6742715 2.0668638,6.9870178 2.0023012,7.1399165 1.9377383,7.292815 1.7520261,7.8557592 1.5896074,8.3909034 1.4271885,8.9260488 1.2673189,9.4496194 1.2343416,9.5543944 c -0.043453,0.138056 0.025667,0.1672784 0.2510736,0.1061466 0.1710677,-0.046395 0.4500785,-0.08521 0.6200237,-0.086252 z m 1.811822,0.032847 C 3.9129741,9.549805 3.638945,8.6897508 3.3083075,7.6959106 L 2.7071483,5.888929 l -0.00904,1.833341 -0.00904,1.8333406 0.5149857,0.054526 c 0.2832421,0.029986 0.5613344,0.065036 0.6179828,0.077886 0.056648,0.01285 0.09949,-0.023547 0.095202,-0.080885 z m 7.2519261,-0.032847 c 0.305344,-0.00187 0.308863,-0.023636 0.298149,-1.8436294 -0.006,-1.0129518 -0.0317,-1.7791818 -0.05719,-1.7027326 -0.02549,0.076449 -0.273609,0.8528659 -0.551369,1.7253709 -0.277762,0.8725039 -0.540541,1.6800624 -0.583956,1.7945747 -0.06163,0.1625512 -0.0061,0.188481 0.25322,0.118258 0.182685,-0.049473 0.471201,-0.090795 0.641145,-0.091847 z m 1.755277,-0.036642 C 12.893816,9.4420844 12.646439,8.6289435 12.374731,7.7306652 12.103024,6.8323868 11.851944,6.0974317 11.816777,6.0974317 c -0.03517,0 -0.06394,0.7780911 -0.06394,1.7290923 l 0,1.7290915 0.514984,0.054526 c 0.283244,0.029986 0.559396,0.065036 0.613673,0.077886 0.05428,0.01285 0.07362,-0.054821 0.04297,-0.1503817 z M 2.1987826,4.7857063 C 1.937792,4.5912876 1.9379382,4.5869071 2.2084354,4.4965673 2.3594979,4.446116 3.0701781,4.1358871 3.7877247,3.8071697 5.6450953,2.9562843 6.1531975,2.788983 6.2248412,3.004708 6.3114685,3.2655491 6.5282811,3.2150226 6.8212934,2.8657094 7.0829723,2.5537501 7.0842382,2.5536626 7.3239597,2.8310973 c 0.1795268,0.20777 0.4140402,0.278802 0.9269742,0.2807723 0.5324845,0.00205 0.991394,0.1502495 2.0439971,0.6601059 0.746544,0.3616075 1.472673,0.6574683 1.613622,0.6574683 0.31033,0 0.335948,0.2190527 0.0449,0.3839119 -0.217322,0.1230973 -0.200708,0.1927289 0.820423,3.43855 l 0.174913,0.5559942 0.100146,-0.9829843 C 13.481874,3.575736 9.8927076,0.24153717 5.8200953,1.1095923 2.8127621,1.7505893 0.82474138,4.5952444 1.1281139,7.8233405 l 0.090353,0.9614217 0.6226607,-1.9008235 c 0.6064059,-1.8512 0.6157429,-1.9059762 0.3576554,-2.0982324 z"
     id="path3904"
     style="fill:#ffffff;fill-opacity:1"
     inkscape:connector-curvature="0" /><g
     id="g5" /><g
     id="g7" /><g
     id="g9" /><g
     id="g11" /><g
     id="g13" /><g
     id="g15" /><g
     id="g17" /><g
     id="g19" /><g
     id="g21" /><g
     id="g23" /><g
     id="g25" /><g
     id="g27" /><g
     id="g29" /><g
     id="g31" /><g
     id="g33" /></svg>