<?xml version="1.0" encoding="UTF-8" standalone="no"?>
<!-- Created with Inkscape (http://www.inkscape.org/) -->

<svg
   xmlns:dc="http://purl.org/dc/elements/1.1/"
   xmlns:cc="http://creativecommons.org/ns#"
   xmlns:rdf="http://www.w3.org/1999/02/22-rdf-syntax-ns#"
   xmlns:svg="http://www.w3.org/2000/svg"
   xmlns="http://www.w3.org/2000/svg"
   xmlns:sodipodi="http://sodipodi.sourceforge.net/DTD/sodipodi-0.dtd"
   xmlns:inkscape="http://www.inkscape.org/namespaces/inkscape"
   version="1.1"
   width="14"
   height="14"
   viewBox="0 0 14 14"
   id="Layer_1"
   xml:space="preserve"
   inkscape:version="0.48.4 r9939"
   sodipodi:docname="awri32-iconmobile.svg"><sodipodi:namedview
     pagecolor="#ffffff"
     bordercolor="#666666"
     borderopacity="1"
     objecttolerance="10"
     gridtolerance="10"
     guidetolerance="10"
     inkscape:pageopacity="0"
     inkscape:pageshadow="2"
     inkscape:window-width="640"
     inkscape:window-height="480"
     id="namedview21"
     showgrid="false"
     inkscape:zoom="16.857143"
     inkscape:cx="7"
     inkscape:cy="7"
     inkscape:window-x="65"
     inkscape:window-y="24"
     inkscape:window-maximized="0"
     inkscape:current-layer="Layer_1" /><metadata
     id="metadata39"><rdf:RDF><cc:Work
         rdf:about=""><dc:format>image/svg+xml</dc:format><dc:type
           rdf:resource="http://purl.org/dc/dcmitype/StillImage" /><dc:title></dc:title></cc:Work></rdf:RDF></metadata><defs
     id="defs37" /><path
     d="M 5.2561127,14.01177 C 4.2099619,13.670537 3.002712,12.942367 2.2512821,12.199364 L 1.4254361,11.38278 1.936393,11.33968 c 0.4173623,-0.0352 0.6476853,0.06189 1.257392,0.530078 0.4105394,0.315247 1.0110276,0.699549 1.3344184,0.854004 2.1554693,1.029479 4.9173222,0.609811 6.6277936,-1.007103 0.367394,-0.347299 0.540248,-0.411049 1.014411,-0.374125 l 0.571556,0.04451 -0.838261,0.820566 c -0.527187,0.516059 -1.227105,1.011359 -1.886088,1.334698 C 9.0123856,14.035539 8.9016328,14.057923 7.2932656,14.09292 6.3711781,14.11298 5.4544593,14.07647 5.2561127,14.01177 z m 0.22092,-1.205778 C 5.4001917,12.775542 5.1604666,12.711022 4.9443096,12.662634 4.6170328,12.589364 4.5586124,12.511375 4.595034,12.196373 c 0.0496,-0.42898 0.3671269,-0.565003 1.3709845,-0.587306 l 0.628696,-0.01397 0.00425,-1.237198 C 6.6013045,9.6774422 6.6360475,7.9238042 6.6761735,6.4609289 6.7162995,4.9980534 6.7027305,3.7721361 6.6460205,3.7366681 6.3432835,3.5473306 2.9855687,4.3844433 2.6383367,4.7358249 c -0.044188,0.044716 0.2109854,0.9859846 0.5670507,2.0917093 0.3560652,1.105725 0.7593904,2.383472 0.8962781,2.839439 L 4.3505524,10.496003 4.0345828,10.754917 C 3.4211661,11.257568 1.6891401,11.28222 0.95906524,10.798692 0.63325909,10.58291 0.62443999,10.457647 0.87917849,9.6640112 c 0.0697168,-0.217202 0.0581942,-0.225267 -0.0692593,-0.04848 -0.13590169,0.188506 -0.16800116,0.188506 -0.28889518,0 C 0.23992695,9.1772262 0.06583859,7.8092562 0.13090272,6.549996 0.18876658,5.4300907 0.26760054,5.1033621 0.70466426,4.1720317 1.5858981,2.2942282 3.2921298,0.7691062 5.1181871,0.2269872 c 0.9435228,-0.280113 2.8966851,-0.290982 3.8964494,-0.02168 2.2464905,0.605119 4.2695675,2.699238 4.8568045,5.027357 0.261388,1.0362767 0.215036,3.2539546 -0.08522,4.0773506 l -0.172144,0.4720684 -0.210918,-0.440701 c -0.286313,-0.598237 -0.367411,-0.460296 -0.104188,0.177216 0.297227,0.7198638 0.264198,1.0450698 -0.132881,1.3083548 -0.763645,0.506339 -2.826272,0.355594 -3.1889993,-0.233064 -0.1005176,-0.163127 0.093639,-0.9381398 0.7198473,-2.8734078 0.471619,-1.4575188 0.857489,-2.7361838 0.857489,-2.8414784 0,-0.1052944 -0.3615,-0.3298258 -0.803333,-0.4989585 C 9.912386,4.0589894 7.8236905,3.6312398 7.5719789,3.7289849 7.4749099,3.7666789 7.4490417,4.650535 7.4943199,6.3824165 c 0.037342,1.4283007 0.07025,3.1854597 0.07313,3.9047975 l 0.00524,1.307887 0.558841,6.65e-4 c 0.895275,0.0011 1.6066676,0.251798 1.6066676,0.566278 0,0.469086 -0.5353974,0.617778 -2.3750739,0.659611 -0.9605078,0.02184 -1.8092475,0.01479 -1.8860881,-0.01566 z M 2.0192045,9.6174622 c 0.3100352,-0.0019 0.3141967,-0.02666 0.3033183,-1.804523 C 2.3139828,6.4167539 2.2801778,6.1059718 2.1725967,6.434486 2.0962037,6.6677632 1.9799606,6.9858672 1.9142787,7.1413852 1.8485967,7.2969032 1.6596649,7.8694912 1.4944306,8.4138032 1.3291961,8.9581162 1.166555,9.4906562 1.133006,9.5972262 c -0.044206,0.140421 0.026112,0.170144 0.2554261,0.107965 0.1740334,-0.04719 0.457881,-0.08667 0.6307724,-0.08773 z m 1.8432313,0.03341 C 3.8580747,9.5925582 3.5792951,8.7177702 3.2429257,7.7069042 l -0.6115808,-1.8379374 -0.00919,1.8647484 -0.00919,1.864748 0.5239134,0.05546 c 0.2881523,0.0305 0.5710655,0.06615 0.628696,0.07922 0.05763,0.01307 0.1012144,-0.02395 0.096853,-0.08227 z m 7.3776432,-0.03341 c 0.310638,-0.0019 0.314218,-0.02404 0.303319,-1.875213 -0.0061,-1.030305 -0.03225,-1.8096615 -0.05818,-1.7319026 -0.02593,0.077759 -0.278352,0.8674766 -0.560928,1.7549286 -0.282576,0.887451 -0.549911,1.708844 -0.594079,1.825318 -0.0627,0.165336 -0.0062,0.19171 0.25761,0.120284 0.185852,-0.05032 0.479369,-0.09235 0.65226,-0.09342 z m 1.785707,-0.03727 c -0.03118,-0.0972 -0.282845,-0.924271 -0.559263,-1.837938 -0.276418,-0.913667 -0.53185,-1.6612127 -0.567627,-1.6612127 -0.03578,0 -0.06505,0.7914207 -0.06505,1.7587137 l 0,1.758713 0.523913,0.05546 c 0.288153,0.0305 0.569093,0.06615 0.624311,0.07922 0.05522,0.01307 0.07489,-0.05576 0.04371,-0.152958 z M 2.1141664,4.7468446 C 1.8486512,4.5490952 1.8488,4.5446397 2.1239864,4.4527522 2.2776677,4.4014367 3.0006681,4.0858932 3.730654,3.7515445 5.6202235,2.8860823 6.1371341,2.715915 6.2100198,2.9353355 6.2981488,3.2006452 6.5187201,3.1492531 6.816812,2.7939557 7.0830273,2.4766522 7.0843152,2.4765632 7.3281924,2.7587507 7.5108315,2.97008 7.7494103,3.0423289 8.2712364,3.0443329 c 0.5417155,0.00208 1.0085806,0.1528236 2.0794316,0.6714144 0.759485,0.3678023 1.498202,0.6687315 1.641595,0.6687315 0.31571,0 0.341772,0.2228054 0.04568,0.3904889 -0.221089,0.1252061 -0.204187,0.1960305 0.834647,3.4974566 l 0.177944,0.565519 0.101888,-0.999824 C 13.592859,3.5161459 9.9414715,0.1248282 5.7982574,1.0077542 2.7387896,1.6597322 0.71630503,4.5531198 1.0249367,7.8365172 l 0.091919,0.977892 0.633455,-1.933387 C 2.3672291,4.9981089 2.376728,4.9423943 2.1141664,4.7468446 z"
     id="path3904"
     style="fill:#000000;fill-opacity:1"
     inkscape:export-filename="/media/robert/Volume1/HTDOCSRASPBERRY/awri32-black.png"
     inkscape:export-xdpi="90"
     inkscape:export-ydpi="90" /><g
     id="g5" /><g
     id="g7" /><g
     id="g9" /><g
     id="g11" /><g
     id="g13" /><g
     id="g15" /><g
     id="g17" /><g
     id="g19" /><g
     id="g21" /><g
     id="g23" /><g
     id="g25" /><g
     id="g27" /><g
     id="g29" /><g
     id="g31" /><g
     id="g33" /></svg>