<?xml version="1.0" encoding="UTF-8" standalone="no"?>
<!-- Generator: Adobe Illustrator 16.0.0, SVG Export Plug-In . SVG Version: 6.00 Build 0)  -->

<svg
   xmlns:dc="http://purl.org/dc/elements/1.1/"
   xmlns:cc="http://creativecommons.org/ns#"
   xmlns:rdf="http://www.w3.org/1999/02/22-rdf-syntax-ns#"
   xmlns:svg="http://www.w3.org/2000/svg"
   xmlns="http://www.w3.org/2000/svg"
   xmlns:sodipodi="http://sodipodi.sourceforge.net/DTD/sodipodi-0.dtd"
   xmlns:inkscape="http://www.inkscape.org/namespaces/inkscape"
   version="1.1"
   id="Layer_1"
   x="0px"
   y="0px"
   width="14px"
   height="14px"
   viewBox="0 0 14 14"
   style="enable-background:new 0 0 14 14;"
   xml:space="preserve"
   inkscape:version="0.48.4 r9939"
   sodipodi:docname="calendar-black.svg"><metadata
     id="metadata39"><rdf:RDF><cc:Work
         rdf:about=""><dc:format>image/svg+xml</dc:format><dc:type
           rdf:resource="http://purl.org/dc/dcmitype/StillImage" /></cc:Work></rdf:RDF></metadata><defs
     id="defs37" /><sodipodi:namedview
     pagecolor="#ffffff"
     bordercolor="#666666"
     borderopacity="1"
     objecttolerance="10"
     gridtolerance="10"
     guidetolerance="10"
     inkscape:pageopacity="0"
     inkscape:pageshadow="2"
     inkscape:window-width="640"
     inkscape:window-height="480"
     id="namedview35"
     showgrid="false" /><path
     d="M0,8h2V6H0V8z M3,8h2V6H3V8z M6,8h2V6H6V8z M9,8h2V6H9V8z M12,8h2V6h-2V8z M0,11h2V9H0V11z M3,11h2V9H3V11z M6,11h2V9H6V11z   M9,11h2V9H9V11z M12,11h2V9h-2V11z M0,14h2v-2H0V14z M3,14h2v-2H3V14z M6,14h2v-2H6V14z M9,14h2v-2H9V14z M12,1  c0-0.553-0.447-1-1-1s-1,0.447-1,1H4c0-0.553-0.447-1-1-1S2,0.447,2,1H0v4h14V1H12z"
     id="path3" /><g
     id="g5" /><g
     id="g7" /><g
     id="g9" /><g
     id="g11" /><g
     id="g13" /><g
     id="g15" /><g
     id="g17" /><g
     id="g19" /><g
     id="g21" /><g
     id="g23" /><g
     id="g25" /><g
     id="g27" /><g
     id="g29" /><g
     id="g31" /><g
     id="g33" /><g
     id="layer1"
     inkscape:label="Ebene 1"
     transform="matrix(0.03250674,0,0,0.03250674,-4.5824124,-3.4736993)"
     style="fill:#000000;stroke:none;stroke-width:1.01517403000000006;stroke-miterlimit:4;stroke-opacity:1;stroke-dasharray:none"><g
       transform="matrix(1.0286601,0,0,1.0760483,-77.587771,-174.20541)"
       id="g3050"
       style="fill:#000000;stroke:none;stroke-width:0.96491420000000006;stroke-miterlimit:4;stroke-opacity:1;stroke-dasharray:none"><path
         inkscape:connector-curvature="0"
         id="path3066"
         d="m 115.21429,569.505 0,-270 299.07144,0 299.07144,0 0,270 0,270 -299.07144,0 -299.07144,0 0,-270 z"
         style="fill:#000000;stroke:none;stroke-width:0.96491420000000006;stroke-miterlimit:4;stroke-opacity:1;stroke-dasharray:none" /><path
         inkscape:connector-curvature="0"
         id="path3064"
         d="m 316.56932,830.522 c -44.82438,-8.83562 -72.10897,-23.96035 -113.37829,-62.84927 -16.38217,-15.43725 -37.54874,-35.35944 -47.03684,-44.27152 -9.89473,-9.29404 -17.25107,-22.07408 -17.25107,-29.97 0,-7.57142 -3.31416,-16.78813 -7.3648,-20.4816 -5.33811,-4.8674 -7.29254,-33.02712 -7.10222,-102.33 0.25886,-94.26299 0.50042,-96.03445 17.08773,-125.31461 19.58766,-34.57641 89.42148,-102.44786 124.28047,-120.78812 13.2633,-6.97818 38.77255,-14.73829 56.68723,-17.2447 41.75171,-5.8414 147.42126,-5.87239 189.51061,-0.0556 83.69864,11.56726 181.19393,101.73555 193.10036,178.58841 6.32575,40.83094 6.0978,122.76066 -0.48799,175.43264 -4.47671,35.80374 -7.48615,42.83137 -26.28689,61.3852 -50.13733,49.47883 -78.22172,73.96258 -99.35984,86.6211 -46.54266,27.87199 -175.78013,38.35193 -262.39846,21.27806 z M 332.906,737.17619 c 12.18672,-3.08603 28.82015,-5.62451 36.96318,-5.64107 14.39748,-0.0292 14.81466,-1.10909 15.13738,-39.18012 0.18252,-21.5325 1.88902,-84.7125 3.7922,-140.4 1.90319,-55.6875 1.75384,-101.23165 -0.33186,-101.20921 -43.29028,0.46567 -148.88627,29.19258 -148.88627,40.50384 0,3.68364 4.2649,17.33054 9.47756,30.32644 5.21265,12.99591 21.15593,57.64893 35.4295,99.22893 25.58371,74.52726 25.79832,75.79156 15.12433,89.1 -5.9552,7.425 -20.56598,15.75107 -32.46841,18.50237 -11.90243,2.75131 -21.62159,6.39631 -21.59815,8.1 0.0237,1.7037 11.33388,9.67799 25.13431,17.72065 l 25.09168,14.62302 7.48844,-13.03194 c 4.51164,-7.85149 16.29655,-15.26241 29.64611,-18.64291 z M 569.33672,751.755 c 10.76525,-6.6825 19.59139,-13.54393 19.61364,-15.24763 0.0225,-1.70369 -9.69788,-5.34869 -21.60031,-8.1 -11.90242,-2.7513 -26.5985,-11.09655 -32.65795,-18.54498 -10.95715,-13.46883 -10.82312,-14.08266 24.60188,-112.672 19.59048,-54.52117 35.61906,-102.3199 35.61906,-106.21941 0,-9.64141 -52.94543,-26.95501 -104.77304,-34.26167 -23.42442,-3.30237 -43.78502,-6.00431 -45.24577,-6.00431 -1.46075,0 -1.10647,44.3475 0.78729,98.55 1.89376,54.2025 3.59941,117.3825 3.79033,140.4 0.33188,40.01586 0.94595,41.85 14.01072,41.85 26.67786,0 66.74904,12.2986 72.61081,22.28562 7.52332,12.81789 9.511,12.69618 33.24334,-2.03562 z M 203.5884,621.52519 l -0.459,-33.12019 -10.92642,27 c -14.81755,36.61523 -14.81755,45.59784 0,42.06464 10.28839,-2.45323 11.78411,-7.17532 11.38542,-35.94445 z m 391.1313,0 -0.19334,-33.12019 -11.45774,29.7 c -14.6193,37.89519 -14.6193,42.85057 0,39.36464 10.24905,-2.44385 11.81838,-7.28534 11.65108,-35.94445 z M 260.0819,638.355 c -2.27077,-9.6525 -7.5951,-24.84 -11.83187,-33.75 -7.43021,-15.6259 -7.72032,-15.00395 -8.1863,17.55 -0.43972,30.72108 0.62212,33.75 11.83186,33.75 10.79258,0 11.80458,-2.16955 8.18631,-17.55 z m 393.96598,13.5 c -0.048,-2.2275 -5.23464,-18.63 -11.52593,-36.45 l -11.43871,-32.4 -0.3185,36.45 c -0.28785,32.9468 0.8199,36.45 11.52595,36.45 6.51443,0 11.80517,-1.8225 11.75719,-4.05 z M 204.04739,496.21758 c 0,-3.5146 -3.70706,-9.19547 -8.23791,-12.62418 -11.21929,-8.49014 -19.52962,14.0433 -24.14804,65.47735 l -3.53193,39.33425 17.95894,-42.89862 c 9.87741,-23.59424 17.95894,-45.7742 17.95894,-49.2888 z m 459.87706,52.63869 c -2.06575,-20.26681 -6.78687,-44.77665 -10.49136,-54.46633 -5.60582,-14.66289 -8.04962,-16.40732 -14.57129,-10.40127 -6.50419,5.98995 -5.18811,15.24622 7.74419,54.46633 8.56902,25.9875 16.81626,47.25 18.32721,47.25 1.51094,0 1.05701,-16.58193 -1.00875,-36.84873 z M 252.55376,441.97726 c 61.30406,-28.09147 117.50891,-45.55782 128.82711,-40.03462 7.98889,3.89851 12.89111,3.18453 18.20263,-2.65111 9.43105,-10.3617 26.04559,-10.19693 35.64847,0.35354 5.04991,5.54823 12.92964,7.2709 23.53912,5.14614 17.05498,-3.41559 69.16205,12.33814 122.82988,37.13565 31.25122,14.4398 48.84531,17.87541 48.84531,9.53809 0,-10.98983 -42.0075,-51.59742 -73.60379,-71.15093 -40.89486,-25.30797 -62.80571,-31.75731 -121.82904,-35.85967 -93.49621,-6.49839 -184.51708,33.89523 -227.22662,100.83955 l -11.06609,17.34533 14.02719,-3.96645 c 7.71495,-2.18156 26.52758,-9.69454 41.80583,-16.69552 z"
         style="fill:#000000;stroke:none;stroke-width:0.96491420000000006;stroke-miterlimit:4;stroke-opacity:1;stroke-dasharray:none" /><path
         inkscape:connector-curvature="0"
         id="path3062"
         d="m 319.53042,829.35276 c -19.54328,-5.16055 -41.45751,-12.3278 -48.69827,-15.92723 -26.84257,-13.34361 -84.51746,-60.99642 -87.88233,-72.61115 -1.91357,-6.60516 -11.94064,-16.94638 -22.2824,-22.9805 -12.71483,-7.41873 -18.835,-15.28693 -18.90142,-24.3 -0.054,-7.33088 -3.98921,-19.40388 -8.74486,-26.82888 -6.5826,-10.27742 -8.62795,-33.47998 -8.56836,-97.2 l 0.0783,-83.7 19.81835,-35.01921 c 22.68326,-40.08152 84.74593,-101.45159 123.58489,-122.20571 51.47572,-27.50674 152.97719,-36.85049 233.47733,-21.49283 96.80883,18.469 185.36694,100.30721 203.77312,188.31054 10.79236,51.60014 10.34783,99.14971 -1.44997,155.10721 -13.0253,61.77962 -11.56822,58.60513 -31.69279,69.04735 -9.8076,5.08896 -17.84884,13.29863 -17.86943,18.24372 -0.0397,9.54244 -41.50549,45.46108 -78.52819,68.02303 -53.52837,32.62065 -178.28711,44.08441 -256.11394,23.53366 z m 116.96359,-31.5541 c -10.58595,-1.19786 -27.9084,-1.19786 -38.49435,0 -10.58594,1.19787 -1.92472,2.17794 19.24717,2.17794 21.17189,0 29.83312,-0.98007 19.24718,-2.17794 z M 304.72491,764.5662 c 0,-15.40418 13.70125,-22.65894 49.0816,-25.98853 l 32.13304,-3.02399 3.66484,-60.07434 c 6.4788,-106.20069 8.64045,-224.83314 4.14297,-227.36763 -12.68683,-7.1495 -149.64202,23.94903 -157.67727,35.80391 -1.72999,2.55236 8.85848,38.04162 23.52995,78.86502 49.78591,138.52948 48.78622,134.48495 36.34033,147.02484 -5.97466,6.01979 -21.09979,13.45848 -33.61138,16.53043 -12.5116,3.07195 -22.74836,7.63414 -22.74836,10.13819 0,4.7549 52.96426,38.05671 60.70262,38.16738 2.44291,0.0351 4.44166,-4.49894 4.44166,-10.07528 z m 278.34371,-16.64984 c 12.55459,-9.26988 13.45496,-11.74634 5.92221,-16.28894 -4.88582,-2.94637 -13.18765,-5.39425 -18.44851,-5.43973 -12.17114,-0.10522 -40.77356,-20.40543 -40.77356,-28.93853 0,-3.55959 16.09136,-51.20478 35.75858,-105.8782 19.66721,-54.67342 34.51614,-102.35844 32.99762,-105.96672 -5.25119,-12.47773 -143.426,-45.38078 -157.43099,-37.48845 -4.23621,2.38726 -2.14321,125.54186 3.87889,228.23921 l 3.56234,60.75 18.40851,0.0302 c 34.71452,0.0568 62.4551,10.24567 66.34204,24.36688 3.41505,12.40687 4.45344,12.6937 19.29333,5.32942 8.62622,-4.28087 22.34651,-12.70264 30.48954,-18.71518 z m 17.76662,-133.12425 c 0,-24.90791 -1.04725,-45.28711 -2.32722,-45.28711 -2.77384,0 -33.20602,82.58059 -33.20602,90.10767 0,2.87201 7.99498,4.1519 17.76662,2.84419 l 17.76662,-2.37765 0,-45.2871 z M 209.9696,618.105 c 0,-23.76 -1.99875,-43.19663 -4.44166,-43.19252 -3.7035,0.006 -14.22652,27.40635 -29.5498,76.94252 -2.33509,7.54875 0.79024,9.45 15.53412,9.45 l 18.45734,0 0,-43.2 z m 59.22207,38.36881 c 0,-8.43768 -23.39258,-73.13343 -29.49351,-81.56881 -4.09643,-5.66389 -5.88564,6.11065 -5.94905,39.15 l -0.0907,47.25 17.76662,0 c 9.77165,0 17.76663,-2.17403 17.76663,-4.83119 z m 390.86564,1.56211 c 0,-6.99955 -30.4766,-93.93092 -32.93052,-93.93092 -1.4315,0 -2.60272,21.87 -2.60272,48.6 l 0,48.6 17.76662,0 c 9.77164,0 17.76662,-1.47109 17.76662,-3.26908 z M 203.59487,485.03401 c -7.67605,-13.07811 -3.30844,-23.52901 9.83318,-23.52901 4.77491,0 26.60382,-8.09826 48.5087,-17.99612 72.15752,-32.60486 105.6166,-42.91397 118.64549,-36.55597 8.93787,4.36161 13.46332,3.82303 19.00126,-2.26138 8.74629,-9.60937 24.54061,-10.35567 34.12913,-1.61265 3.84464,3.50563 19.70135,6.61669 35.23713,6.91348 20.62531,0.39398 44.0406,7.41636 86.78132,26.02612 32.19395,14.01758 62.25876,25.48652 66.81069,25.48652 10.90837,0 16.7324,14.56122 9.20678,23.01877 -6.45273,7.25179 26.68544,111.98123 35.43275,111.98123 6.54234,0 5.90417,-36.03442 -1.2471,-70.41788 C 638.86425,395.93427 505.97883,315.83032 362.75792,343.33106 258.35826,363.37749 182.49907,439.17909 167.17311,538.76739 c -10.04445,65.26902 -0.99916,68.91374 22.83638,9.20171 16.97988,-42.53742 19.28631,-53.2221 13.58538,-62.93509 z"
         style="fill:#000000;stroke:none;stroke-width:0.96491420000000006;stroke-miterlimit:4;stroke-opacity:1;stroke-dasharray:none" /><path
         inkscape:connector-curvature="0"
         id="path3060"
         d="m 315.9382,826.95723 c -61.35538,-20.1786 -129.65743,-67.92518 -129.65743,-90.63709 0,-5.80475 -4.66374,-12.06219 -10.36386,-13.90541 -17.88648,-5.78388 -31.09159,-19.12721 -31.09159,-31.41702 0,-6.50838 -4.66373,-20.10426 -10.36386,-30.21306 -8.36891,-14.84173 -10.36386,-32.46618 -10.36386,-91.55971 l 0,-73.18006 22.3991,-41.32515 C 202.09968,352.13518 294.81238,299.2181 418.10167,299.69736 c 69.45636,0.26999 110.99086,10.7586 164.12066,41.44499 38.25421,22.09464 50.50186,33.13704 79.09723,71.31356 26.94765,35.97671 35.84297,53.40302 43.7025,85.61504 12.09926,49.58847 9.21953,130.77858 -5.59932,157.86433 -5.36492,9.80595 -9.7544,24.36905 -9.7544,32.36243 0,14.46447 -12.10299,27.99699 -30.2495,33.82237 -5.23699,1.68118 -11.10493,10.2744 -13.03989,19.09606 -2.57595,11.74406 -14.21953,23.34694 -43.47897,43.32694 -60.91144,41.5938 -92.19853,51.0351 -176.76984,53.34267 -63.1921,1.72423 -75.40169,0.51331 -110.19194,-10.92852 z m 135.86196,-23.37515 c 10.32629,-2.52111 11.82522,-4.53166 5.9222,-7.94357 -9.46723,-5.47202 -64.83987,-6.23037 -79.53306,-1.08923 -9.66493,3.38175 -9.59316,3.93791 0.99619,7.72046 14.2201,5.07945 54.22362,5.80242 72.61467,1.31234 z M 310.64711,766.92369 c 0,-17.12634 7.89697,-21.22035 47.37766,-24.56188 l 32.57213,-2.75681 3.69214,-59.4 c 3.46104,-55.68206 6.63456,-178.05084 5.63676,-217.35 -0.42228,-16.63226 -1.60693,-17.5431 -22.65386,-17.41799 -27.77173,0.16508 -65.51407,7.90237 -109.56083,22.4603 -39.33785,13.00159 -41.24025,18.46676 -22.61057,64.95512 17.74678,44.28521 53.70216,152.58513 53.70216,161.75438 0,11.53981 -17.29399,24.37462 -40.00264,29.68813 -10.6012,2.48053 -19.78073,6.94006 -20.39895,9.91006 -1.34776,6.47477 54.28828,45.83401 64.84324,45.87279 4.07152,0.015 7.40276,-5.90438 7.40276,-13.1541 z m 271.72745,-16.81482 c 21.33731,-16.37101 20.17492,-21.26125 -6.19686,-26.07053 -22.50679,-4.10444 -40.48673,-17.59606 -40.48673,-30.38006 0,-5.04506 12.23945,-41.72594 27.19879,-81.51306 35.00113,-93.09198 43.19788,-128.06187 31.61756,-134.8903 -17.00375,-10.02638 -86.40239,-27.20484 -122.48007,-30.31786 l -37.0138,-3.19379 -0.31839,21.03086 c -0.72775,48.07114 2.02538,154.73181 5.49102,212.73087 l 3.71068,62.1 35.96578,3.14071 c 43.29937,3.78112 49.90622,7.00029 49.90622,24.31665 0,12.93841 0.48864,13.08959 17.05667,5.2774 9.38116,-4.42342 25.37828,-14.42732 35.54913,-22.23089 z M 208.78516,660.225 c 4.20337,-3.83273 7.0696,-22.03272 7.01596,-44.55 -0.0872,-36.58794 -6.40086,-58.43609 -13.75253,-47.58974 -7.75135,11.43602 -32.72993,90.03799 -29.92696,94.17338 4.52744,6.6796 28.57024,5.346 36.66353,-2.03364 z m 63.10063,-11.07 c -2.29305,-9.6525 -10.8836,-34.13713 -19.09011,-54.4103 -18.0655,-44.62856 -24.83996,-39.68236 -24.96878,18.2303 -0.10026,45.06808 4.92559,53.73 31.17534,53.73 16.14606,0 16.83106,-0.93311 12.88355,-17.55 z m 327.76501,11.07 c 8.21589,-7.49143 9.69724,-84.03126 1.84501,-95.33032 -3.4566,-4.97392 -10.99864,9.04745 -23.59814,43.87118 -10.18483,28.14982 -18.51788,52.70196 -18.51788,54.56032 0,6.08048 32.98737,3.5402 40.27101,-3.10118 z m 62.77847,1.9492 c 3.04213,-4.48824 -7.60202,-41.36833 -24.8835,-86.2169 -6.18494,-16.05104 -10.47558,-21.06597 -13.86028,-16.2 -7.75835,11.15374 -6.10923,93.05253 2.02302,100.4677 8.14174,7.42382 32.1464,8.69803 36.72076,1.9492 z M 192.04923,553.98167 c 13.25066,-35.37658 17.88487,-55.85609 15.38685,-67.99757 -3.31602,-16.11727 -1.96121,-17.98756 18.72661,-25.85158 12.26569,-4.66254 47.50957,-18.61328 78.31973,-31.00165 41.34053,-16.62249 60.60204,-21.68843 73.51168,-19.33417 11.92177,2.17411 20.95831,0.33075 28.37297,-5.78771 10.12468,-8.35477 11.6314,-8.35761 21.70995,-0.041 6.60409,5.44962 21.04738,8.96266 37.01379,9.00286 17.14413,0.0432 42.54,6.74119 73.56126,19.40136 26.05771,10.63449 58.03763,23.21395 71.06648,27.95436 13.02886,4.7404 24.53973,9.13816 25.57972,9.77279 1.03999,0.63463 -1.27747,5.77985 -5.1499,11.43384 -5.70526,8.33003 -4.09808,19.07687 8.47297,56.65676 8.53257,25.50736 15.51376,50.13459 15.51376,54.7273 0,15.322 11.78348,15.23362 18.30316,-0.13726 9.10907,-21.47569 -2.65357,-82.57262 -23.71417,-123.17496 -36.243,-69.87221 -97.46396,-113.74431 -181.04003,-129.73671 -48.06929,-9.19813 -53.55332,-9.24614 -96.03224,-0.84071 -24.7784,4.90298 -56.98252,14.18086 -71.56471,20.61752 -40.35303,17.81205 -93.21898,68.11316 -113.59659,108.08533 -17.46412,34.25715 -32.52176,98.53756 -26.88529,114.77207 1.64269,4.73138 4.38194,12.5953 6.08722,17.47539 4.28907,12.27429 4.98747,11.05549 26.35678,-45.99622 z"
         style="fill:#000000;stroke:none;stroke-width:0.96491420000000006;stroke-miterlimit:4;stroke-opacity:1;stroke-dasharray:none" /><path
         inkscape:connector-curvature="0"
         id="path3058"
         d="M 339.77683,834.61925 C 275.93465,815.85567 191.32487,761.3358 189.41782,737.73266 c -0.63148,-7.81575 -8.08447,-15.2718 -21.30137,-21.31014 -16.93005,-7.73473 -20.11535,-11.95351 -19.04642,-25.22603 0.70598,-8.76588 -2.53385,-19.78425 -7.19962,-24.48525 -14.19472,-14.30193 -22.40386,-63.82916 -19.36375,-116.82515 2.47092,-43.07383 5.78226,-55.46805 24.33785,-91.0955 37.35481,-71.72268 109.68063,-129.97468 187.08576,-150.68091 39.99519,-10.6989 122.78821,-11.11405 165.16743,-0.82821 95.22697,23.1125 180.9836,103.09736 205.87614,192.01983 12.33611,44.06771 9.3811,132.6694 -5.09665,152.81692 -5.16722,7.1908 -10.24433,22.52702 -11.28245,34.08048 -1.60493,17.86147 -4.99062,22.42248 -22.61522,30.46584 -14.53161,6.6318 -20.1972,12.55953 -18.95297,19.82988 2.44101,14.26348 -61.47903,62.06128 -111.16795,83.1286 -35.25073,14.94575 -44.93235,16.52869 -109.72846,17.94059 -39.08656,0.85169 -77.94555,-0.47327 -86.35331,-2.94436 z m 150.01704,-35.62663 c 22.71784,-8.42417 6.82356,-10.78762 -72.54704,-10.78762 -78.81238,0 -102.4555,3.9637 -66.62482,11.16946 8.95734,1.80138 18.95106,4.24442 22.20827,5.429 9.09931,3.30921 105.2512,-1.46769 116.96359,-5.81084 z M 328.41373,747.12077 c 8.14304,-2.05658 25.73571,-3.98145 39.09483,-4.2775 l 24.28931,-0.53827 3.67418,-63.45 c 7.70413,-133.04391 8.35993,-222.64628 1.68944,-230.8283 -5.49848,-6.74442 -12.8162,-7.14242 -45.05893,-2.45069 -46.63655,6.78622 -109.98457,25.53464 -118.72522,35.13781 -4.57354,5.02485 -4.32649,13.23912 0.87421,29.06687 5.65515,17.21082 5.68488,24.72812 0.13521,34.18337 -4.55663,7.76337 -6.49855,31.51924 -5.4018,66.08084 l 1.71236,53.9601 26.64993,0 c 20.30416,0 28.36268,2.57165 33.84284,10.8 16.49349,24.76465 2.22521,41.55711 -41.5033,48.84558 -12.52652,2.08786 -21.55685,6.4455 -20.41108,9.84947 1.1302,3.35772 19.23487,16.70626 40.2326,29.66341 l 38.1777,23.55845 2.9611,-17.93096 c 2.20787,-13.36972 6.7273,-18.88213 17.76662,-21.67018 z m -81.43034,-173.9924 c -10.34257,-20.86121 -9.44603,-29.40076 1.99176,-18.97153 5.16698,4.71137 8.49822,14.26694 7.40275,21.23461 -1.96626,12.5063 -2.08652,12.47732 -9.39451,-2.26308 z m 296.40443,203.47628 c 28.14218,-13.21555 57.44742,-34.68587 57.44742,-42.08853 0,-3.57887 -12.43906,-9.97295 -27.64236,-14.20908 -34.60183,-9.64117 -42.11394,-19.61268 -31.83005,-42.25096 5.27727,-11.61702 9.79078,-15.33541 14.39,-11.85496 3.68558,2.78904 16.00311,3.34182 27.37228,1.22839 l 20.67124,-3.8426 1.72157,-51.03532 c 1.11443,-33.03696 -0.85842,-55.43099 -5.59412,-63.49947 -5.78338,-9.85345 -5.80044,-17.62996 -0.0815,-37.12705 5.28932,-18.03237 5.47866,-26.59168 0.70426,-31.83722 -15.1758,-16.67332 -149.99009,-45.71534 -161.88114,-34.87281 -5.96813,5.44187 -5.86466,129.06935 0.19496,232.95552 l 3.66109,62.76556 35.51832,2.93669 c 42.10769,3.48152 58.53228,14.2588 47.12132,30.91949 -8.92035,13.02425 -6.22047,13.29271 18.22668,1.81235 z M 559.58965,622.8162 c 0.11542,-4.07616 4.01848,-13.4862 8.67346,-20.9112 l 8.46359,-13.5 0.20989,14.1888 c 0.11539,7.80384 -3.78766,17.21388 -8.67348,20.9112 -7.16405,5.42135 -8.8427,5.28804 -8.67346,-0.6888 z M 214.61843,608.44432 c 1.00974,-32.98877 -0.61425,-55.13932 -4.04257,-55.13932 -3.15167,0 -7.48572,5.04312 -9.63122,11.20695 -2.14551,6.16382 -5.3787,9.85948 -7.18486,8.21257 -1.80617,-1.6469 2.7043,-20.29515 10.02327,-41.44055 9.68664,-27.98591 11.53289,-40.06406 6.78578,-44.39258 -3.58679,-3.27051 -6.52144,-7.6206 -6.52144,-9.66685 0,-4.22906 73.6674,-37.00065 128.35754,-57.10099 28.30191,-10.40184 39.20084,-12.15109 48.23635,-7.74183 8.86771,4.32738 13.41995,3.777 18.94222,-2.29019 8.74629,-9.60937 24.54061,-10.35567 34.12913,-1.61265 3.84464,3.50563 19.70135,6.61669 35.23713,6.91348 20.62531,0.39398 44.0406,7.41636 86.78132,26.02612 32.19395,14.01758 62.17512,25.48652 66.62482,25.48652 9.43409,0 10.73619,11.62749 2.17618,19.4327 -3.93747,3.59026 -2.63009,13.01605 3.91155,28.20098 9.19559,21.34547 9.1808,23.23831 -0.23061,29.51327 -8.55902,5.70665 -9.80278,15.13604 -8.35322,63.32902 l 1.70317,56.62403 23.03018,1.72065 23.03018,1.72065 -3.75376,-21.40479 c -2.51471,-14.33941 -0.84322,-26.49333 5.06381,-36.82065 10.32671,-18.05428 11.21342,-43.27334 2.92303,-83.13374 C 644.38368,393.99769 506.832,310.2665 362.75792,337.93106 c -102.41137,19.66465 -183.66016,98.129 -200.66894,193.7919 -6.54596,36.81663 -2.99598,78.37287 7.18521,84.11035 3.50891,1.9774 4.39493,12.03134 2.1351,24.2277 -5.00352,27.00416 -1.33486,31.4911 22.17413,27.11996 l 19.34728,-3.59733 1.68773,-55.13932 z"
         style="fill:#000000;stroke:none;stroke-width:0.96491420000000006;stroke-miterlimit:4;stroke-opacity:1;stroke-dasharray:none" /><path
         inkscape:connector-curvature="0"
         id="path3056"
         d="M 346.18035,836.07484 C 269.47168,809.11276 188.5082,755.7712 194.1952,735.94172 c 2.19406,-7.6503 -2.48024,-12.49526 -18.78279,-19.46855 -18.06559,-7.7274 -22.02957,-12.45051 -23.64732,-28.17589 C 150.69614,677.90653 146.49217,665.76 142.42294,661.305 121.25933,638.13505 114.06458,550.63461 129.50829,504.24075 154.73136,428.46911 225.80502,352.73497 302.77825,319.60904 341.60772,302.89853 346.16918,302.205 417.24683,302.205 l 74.02759,0 51.64153,23.43858 c 64.98382,29.49426 112.25515,73.32468 145.02826,134.47156 22.43622,41.86064 22.45186,41.93822 22.45186,111.21697 0,65.69816 -0.70848,69.85021 -13.53482,79.32052 -9.93062,7.33227 -13.17914,14.80905 -12.19914,28.07755 1.69633,22.96703 -3.55566,30.47532 -27.77031,39.70071 -14.50697,5.52692 -18.7434,10.01391 -16.57927,17.55985 4.04739,14.1125 -48.8957,55.97842 -101.66046,80.39023 -39.56342,18.30417 -44.69892,19.26252 -112.52193,20.99788 -39.08656,1.00009 -75.06397,0.41332 -79.94979,-1.30401 z m 147.8888,-37.52505 c 43.68593,-11.82937 112.6883,-53.07178 112.6883,-67.35329 0,-2.02836 -11.94183,-6.7366 -26.5374,-10.46277 -30.75349,-7.8512 -40.28602,-16.24195 -37.58094,-33.0796 1.60891,-10.01459 7.85165,-13.11835 37.02881,-18.40996 22.8271,-4.13996 43.28312,-4.68683 58.52311,-1.56457 12.8862,2.64003 25.07649,3.29575 27.08952,1.45714 4.68289,-4.27712 7.84875,-45.9765 8.1791,-107.73174 0.20182,-37.72781 -2.68351,-55.5346 -12.89776,-79.59849 -18.48972,-43.56022 -52.1301,-81.962 -96.09081,-109.69139 -49.89965,-31.47552 -97.05836,-42.45307 -166.83073,-38.83467 -44.81912,2.32432 -58.18383,5.4616 -94.75531,22.24319 -51.01308,23.40843 -67.63021,36.31504 -98.51552,76.5175 -41.44182,53.94353 -46.33831,78.09617 -41.82621,206.31386 1.29778,36.87833 3.28453,38.34469 39.22016,28.94726 11.70417,-3.06072 31.0225,-2.49862 53.26076,1.54974 29.20693,5.31696 35.2106,8.34892 36.83032,18.59996 2.7822,17.60829 -7.45308,26.03968 -40.34506,33.23457 -19.77509,4.32566 -27.98933,8.58928 -25.93813,13.46326 6.12918,14.56398 80.93307,53.76098 132.45341,69.40516 20.4409,6.20689 106.30432,3.04792 136.04438,-5.00516 z M 344.7174,787.31844 c -22.94182,-2.54686 -36.84049,-15.989 -28.79903,-27.85307 5.49996,-8.1144 38.83412,-17.16037 63.23553,-17.16037 l 18.24622,0 -0.0887,-41.85 c -0.0487,-23.0175 1.08554,-90.45 2.52062,-149.85 l 2.60923,-108 -35.53324,1.38205 c -42.05046,1.63555 -111.91167,19.30231 -134.4151,33.9914 -10.58794,6.91126 -17.30051,8.46347 -19.9156,4.60527 -5.47798,-8.08199 -1.80308,-10.23634 68.4587,-40.13285 45.41109,-19.3225 69.52504,-26.51121 89.40344,-26.65246 14.97115,-0.10638 31.67734,-3.56628 37.12488,-7.68867 8.49456,-6.42823 11.36422,-6.29842 20.15738,0.91183 6.30049,5.16629 20.60038,8.25315 37.09588,8.00773 19.93502,-0.29656 42.03423,5.9468 85.872,24.26021 32.46589,13.56277 63.99277,26.11841 70.05974,27.90143 8.88928,2.61248 9.64665,4.76264 3.90107,11.07519 -6.1703,6.77917 -9.24872,6.45085 -22.87526,-2.43968 -22.31135,-14.55688 -92.31772,-32.21079 -134.18962,-33.8394 l -35.53324,-1.38205 2.5871,105.3 c 1.42291,57.915 2.59182,125.3475 2.59759,149.85 l 0.0107,44.55 16.98822,0 c 9.34352,0 28.8283,2.71848 43.29951,6.04106 29.67851,6.81417 35.68147,21.40639 13.29938,32.32868 -13.36202,6.52056 -126.47582,11.04443 -166.11723,6.6437 z M 209.9696,527.73305 c 0,-8.56012 3.7803,-20.27786 8.40068,-26.03942 8.098,-10.09815 8.54365,-9.95616 12.36886,3.94078 5.55943,20.19733 1.60531,33.73344 -10.47369,35.85453 -7.85682,1.37966 -10.29585,-1.87904 -10.29585,-13.75589 z m 390.86564,-0.9864 c 0,-18.29043 5.21032,-32.84165 11.75954,-32.84165 7.30008,0 19.54033,31.39818 15.75069,40.40302 -1.89732,4.50834 -8.8633,8.19698 -15.47995,8.19698 -9.34391,0 -12.03028,-3.51885 -12.03028,-15.75835 z"
         style="fill:#000000;stroke:none;stroke-width:0.96491420000000006;stroke-miterlimit:4;stroke-opacity:1;stroke-dasharray:none" /><path
         inkscape:connector-curvature="0"
         id="path3054"
         d="m 343.21925,835.81733 c -6.51443,-1.62893 -13.17691,-4.74265 -14.80552,-6.91936 -1.6286,-2.17671 -20.28356,-11.60086 -41.45544,-20.94256 -48.90613,-21.57889 -92.23047,-55.18881 -87.03964,-67.52313 5.37276,-12.76659 9.54944,-11.53823 45.74357,13.45307 114.09872,78.78287 240.32552,78.20394 344.84928,-1.58161 20.23356,-15.44477 31.49645,-20.5408 39.97489,-18.08713 6.49236,1.8789 11.8043,5.54892 11.8043,8.1556 0,9.005 -68.21345,55.59966 -100.67752,68.76994 -17.91467,7.26777 -34.47289,16.01509 -36.79605,19.43849 -4.42682,6.52336 -139.01065,10.88467 -161.59787,5.23669 z m -5.84989,-54.74066 c -23.31441,-4.94752 -26.73533,-20.78137 -6.03991,-27.95593 8.59208,-2.97866 26.19209,-5.41574 39.11113,-5.41574 13.47248,0 24.58514,-2.87846 26.05925,-6.75 4.92118,-12.92481 13.17676,-269.32477 9.224,-286.47683 -3.9399,-17.0963 -4.30104,-17.2549 -35.26798,-15.48905 -17.20802,0.98126 -45.03336,5.36589 -61.83409,9.74361 -16.80073,4.37771 -37.20927,9.1757 -45.3523,10.66218 l -14.80552,2.7027 14.80552,-8.15563 c 8.14303,-4.48561 35.23989,-15.74647 60.21523,-25.02414 36.38094,-13.51455 47.80528,-15.69949 57.45804,-10.98901 9.87045,4.8167 14.31558,3.67389 24.59117,-6.32217 12.16854,-11.83752 12.78817,-11.89809 20.76234,-2.0299 6.01782,7.44717 16.61429,10.44528 39.55993,11.19288 21.05606,0.68603 45.47396,6.90643 74.4106,18.95592 48.05647,20.01116 52.71643,27.35995 9.13282,14.40252 -44.02936,-13.08995 -109.14126,-21.16547 -116.50644,-14.44974 -6.55642,5.97829 -5.9598,130.04534 1.16965,243.22666 l 3.91176,62.1 36.99531,3.72089 c 20.34742,2.04649 39.66862,5.22741 42.93599,7.06869 9.38034,5.28617 6.93332,17.36441 -4.42317,21.8324 -13.86251,5.45393 -153.75581,8.19414 -176.11333,3.44969 z M 183.31967,716.78589 c -30.46027,-9.59659 -34.02931,-13.20681 -29.46155,-29.80147 4.13383,-15.01814 1.84823,-14.58495 79.3025,-15.03037 52.33969,-0.30099 61.22222,3.42537 58.27324,24.44652 -2.75724,19.65437 -70.11928,32.35572 -108.11419,20.38532 z m 400.79529,1.44394 c -17.33919,-3.82618 -34.33327,-9.5166 -37.76464,-12.64539 -8.70623,-7.93854 -0.45725,-35.20956 9.58717,-31.69503 4.34838,1.5215 18.22801,0.7194 30.84361,-1.78244 12.6156,-2.50185 38.92741,-2.91827 58.47069,-0.92539 34.50908,3.51898 35.53324,4.08296 35.53324,19.5672 0,14.24126 -3.16192,16.97789 -29.61103,25.62821 -16.28607,5.32645 -30.94353,9.48759 -32.57214,9.24698 -1.6286,-0.24062 -17.14771,-3.56797 -34.4869,-7.39414 z m -437.81852,-55.3527 c -4.0767,-1.36283 -9.08105,-11.99408 -11.12077,-23.625 -2.03971,-11.63092 -6.03296,-21.14713 -8.87387,-21.14713 -2.84092,0 -5.1653,-21.87 -5.1653,-48.6 0,-28.8 2.41275,-48.6 5.9222,-48.6 3.25722,0 5.92221,-5.53605 5.92221,-12.30234 0,-23.59731 40.64647,-90.32608 75.05809,-123.22188 32.27014,-30.84866 77.03197,-58.5231 108.53032,-67.09995 8.14303,-2.21731 16.70705,-6.74145 19.03116,-10.05365 6.27488,-8.94264 159.79195,-8.25749 163.0767,0.72782 1.35717,3.7125 6.95153,6.75 12.43191,6.75 11.88114,0 86.74802,39.05559 106.85429,55.74236 19.60624,16.2718 69.34375,86.14423 74.40241,104.52229 2.29011,8.31994 6.84426,16.63769 10.12033,18.48388 8.02265,4.52105 13.44514,82.42561 8.33368,119.72901 -4.33205,31.6153 -16.29086,43.06875 -30.98215,29.6729 -6.1812,-5.63615 -6.37216,-13.69327 -0.95418,-40.25806 C 706.84695,466.49039 574.97432,326.505 417.84981,326.505 c -126.37399,0 -241.2852,90.12594 -261.65435,205.21796 -4.56496,25.79348 -4.27974,46.92592 1.07727,79.8153 7.22124,44.33482 4.60979,56.54924 -10.97629,51.33887 z M 611.2232,530.5419 c -6.79048,-4.61671 -9.01261,-11.00071 -6.64372,-19.0869 4.68204,-15.98212 12.88665,-15.4563 17.44889,1.11827 5.385,19.56367 1.36752,26.2446 -10.80517,17.96863 z M 213.09454,520.05137 c 5.84434,-17.31445 8.46035,-19.03706 14.86741,-9.78999 7.33696,10.58916 4.06757,18.33462 -8.6911,20.58999 -8.47122,1.49747 -9.63834,-0.54337 -6.17631,-10.8 z M 212.9307,477.705 c -2.01307,-2.97 0.65192,-5.4 5.92221,-5.4 5.27028,0 7.93528,2.43 5.9222,5.4 -2.01307,2.97 -4.67806,5.4 -5.9222,5.4 -1.24415,0 -3.90914,-2.43 -5.92221,-5.4 z m 396.78785,0 c -2.01307,-2.97 0.65192,-5.4 5.92221,-5.4 5.27028,0 7.93528,2.43 5.92221,5.4 -2.01307,2.97 -4.67807,5.4 -5.92221,5.4 -1.24414,0 -3.90914,-2.43 -5.92221,-5.4 z"
         style="fill:#000000;stroke:none;stroke-width:0.96491420000000006;stroke-miterlimit:4;stroke-opacity:1;stroke-dasharray:none" /><path
         inkscape:connector-curvature="0"
         id="path3052"
         d="m 340.25815,834.105 c -8.14304,-2.3779 -10.80803,-4.65814 -5.92221,-5.06719 4.88582,-0.40905 -7.85354,-7.33378 -28.30969,-15.38827 -20.45615,-8.0545 -53.76857,-26.79454 -74.02759,-41.64454 -30.67508,-22.48504 -34.7293,-27.27386 -24.24476,-28.63773 7.52537,-0.97893 28.35931,8.41388 51.79154,23.34981 108.69704,69.28449 224.95634,65.96885 330.83305,-9.43515 13.26011,-9.44367 27.48806,-15.0549 35.53324,-14.0136 11.66535,1.50984 8.6069,5.26313 -23.41672,28.73667 -20.25903,14.85 -53.57144,33.59004 -74.02759,41.64454 -20.45615,8.05449 -33.19551,14.97922 -28.30969,15.38827 4.88582,0.40905 2.22083,2.68929 -5.92221,5.06719 -8.14303,2.3779 -42.78794,4.32346 -76.98869,4.32346 -34.20074,0 -68.84565,-1.94556 -76.98868,-4.32346 z m -7.74084,-57.78172 c -6.08757,-1.43852 -9.88905,-6.40716 -8.81663,-11.5236 1.42764,-6.81114 10.87751,-9.7803 38.927,-12.23092 20.37292,-1.77992 38.16155,-4.25735 39.53028,-5.50539 1.36874,-1.24805 4.39485,-59.93424 6.72469,-130.41377 2.32985,-70.47953 6.10788,-128.1446 8.39562,-128.1446 2.28775,0 6.09503,57.70464 8.46062,128.23253 2.36559,70.52789 5.28846,129.13285 6.49528,130.23325 1.20681,1.1004 14.98456,3.07354 30.61723,4.38475 43.62118,3.65879 55.07295,6.71076 55.07295,14.67735 0,4.02716 -8.32811,8.84087 -18.5069,10.69712 -20.84614,3.80159 -150.42754,3.48581 -166.90014,-0.40672 z M 169.578,709.59617 c -9.71483,-3.55196 -13.1857,-8.57811 -11.84441,-17.15184 1.59133,-10.17212 6.91051,-12.78247 32.98884,-16.18904 17.10037,-2.2338 45.08279,-2.2338 62.18317,0 26.04048,3.40163 31.39882,6.02483 32.98278,16.14687 1.39489,8.91385 -2.20316,13.50484 -13.7105,17.49414 -19.2825,6.68474 -84.01371,6.49539 -102.59988,-0.30014 z m 390.86564,0 c -9.73504,-3.55935 -13.18849,-8.57656 -11.84441,-17.20772 1.54272,-9.90676 6.87726,-12.8662 28.54719,-15.83714 14.65746,-2.00952 43.30613,-2.28146 63.66372,-0.60429 34.13033,2.81185 37.01379,4.05341 37.01379,15.93735 0,8.86564 -4.74109,14.53156 -15.19105,18.15429 -18.94592,6.56806 -83.78281,6.28731 -102.18924,-0.44248 z M 141.11351,647.805 c -2.84432,-5.94 -5.1715,-42.39 -5.1715,-81 0,-67.84321 0.63923,-71.43054 19.04024,-106.85306 20.55044,-39.56024 72.05118,-93.44279 110.75056,-115.87254 12.75509,-7.39271 36.74003,-17.83869 53.29986,-23.21329 16.55983,-5.3746 26.1113,-10.19177 21.22548,-10.70483 -26.23536,-2.75495 28.61287,-9.57974 76.98868,-9.57974 48.21698,0 103.53091,6.8588 76.98869,9.54642 -4.88582,0.49474 2.16039,4.04953 15.65824,7.89954 33.05237,9.42759 89.7271,41.45151 112.29123,63.4499 30.14844,29.39256 56.82535,69.0124 68.09698,101.13586 5.82661,16.60546 11.05245,25.33174 11.61299,19.39174 2.18569,-23.16162 10.07742,22.65541 10.69635,62.1 0.80347,51.20224 -5.08066,87.94864 -11.63587,72.66642 -3.91057,-9.11673 -4.58951,-9.2699 -4.94865,-1.11642 -0.48372,10.98211 -9.64824,12.64642 -13.90751,2.52565 -1.60275,-3.8084 -0.51897,-20.2109 2.4084,-36.45 10.5285,-58.40518 -15.86574,-138.78545 -62.67718,-190.8753 -24.39626,-27.14716 -76.41065,-60.95727 -110.02294,-71.51651 -13.22693,-4.15522 -41.91286,-10.31674 -63.74651,-13.69227 -34.95418,-5.40399 -45.52273,-4.78552 -88.44922,5.17601 -26.81343,6.22233 -61.09726,17.91035 -76.18629,25.97337 -89.28122,47.70863 -146.57067,152.28882 -133.08028,242.93412 2.56548,17.23812 2.70144,37.53694 0.30213,45.10848 -4.11908,12.99866 -4.65081,13.16411 -9.53388,2.96645 z m -17.84208,-78.3 c 0,-28.215 0.99816,-39.7575 2.21812,-25.65 1.21997,14.1075 1.21997,37.1925 0,51.3 -1.21996,14.1075 -2.21812,2.565 -2.21812,-25.65 z m 92.62037,-47.96262 c 0,-2.97 2.665,-6.90182 5.92221,-8.73738 3.25721,-1.83556 5.92221,-0.90738 5.92221,2.06262 0,2.97 -2.665,6.90182 -5.92221,8.73738 -3.25721,1.83556 -5.92221,0.90738 -5.92221,-2.06262 z m 394.81379,1.16262 c -5.65984,-5.16077 -4.86841,-12.6 1.34045,-12.6 2.90873,0 6.82258,3.645 8.69745,8.1 3.46401,8.23109 -2.84443,11.05917 -10.0379,4.5 z m -195.03574,-45 c -2.10979,-4.455 -4.6168,-15.39 -5.57115,-24.3 -1.69745,-15.84782 -2.44328,-16.1995 -34.30731,-16.17691 -17.91468,0.013 -43.23211,1.74901 -56.26097,3.85846 l -23.68882,3.83536 29.61103,-13.10426 c 22.0106,-9.74072 35.41349,-12.32609 52.21719,-10.07252 17.61129,2.36188 24.48103,0.82534 31.09159,-6.95419 8.05646,-9.48112 8.89266,-9.50821 16.54106,-0.53595 5.6825,6.6661 16.58651,9.49172 37.0138,9.59161 16.27735,0.0796 39.3315,4.73073 52.64697,10.62143 l 23.68883,10.47981 -23.68883,-3.84833 c -13.02885,-2.11658 -38.34628,-3.85872 -56.26096,-3.87142 l -32.57214,-0.0231 -3.31216,24.3 c -1.94144,14.2436 -4.89965,20.94786 -7.14813,16.2 z"
         style="fill:#000000;stroke:none;stroke-width:0.96491420000000006;stroke-miterlimit:4;stroke-opacity:1;stroke-dasharray:none" /></g></g></svg>